HIERARCHY
ROOT Hips
{
	OFFSET 0.000000 100.481300 0.000000
	CHANNELS 6 Xposition Yposition Zposition Xrotation Yrotation Zrotation
	JOINT Spine
	{
		OFFSET -0.279200 12.230698 -2.892100
		CHANNELS 3 Xrotation Yrotation Zrotation
		JOINT Spine1
		{
			OFFSET -0.325700 14.269203 -3.374200
			CHANNELS 3 Xrotation Yrotation Zrotation
			JOINT Spine2
			{
				OFFSET -0.372300 16.307602 -0.352600
				CHANNELS 3 Xrotation Yrotation Zrotation
				JOINT Neck
				{
					OFFSET -0.418800 17.814194 8.416900
					CHANNELS 3 Xrotation Yrotation Zrotation
					JOINT Head
					{
						OFFSET 0.000000 7.031097 3.806800
						CHANNELS 3 Xrotation Yrotation Zrotation
						JOINT HeadTop_End
						{
							OFFSET 0.000000 24.646606 12.978600
							CHANNELS 3 Xrotation Yrotation Zrotation
							End Site
							{
								OFFSET 0.000000 27.854965 0.000000
							}
						}
					}
				}
				JOINT LeftShoulder
				{
					OFFSET 16.952999 14.495407 -7.737500
					CHANNELS 3 Xrotation Yrotation Zrotation
					JOINT LeftArm
					{
						OFFSET 9.308998 -2.777710 0.208600
						CHANNELS 3 Xrotation Yrotation Zrotation
						JOINT LeftForeArm
						{
							OFFSET 29.972298 0.000000 0.000000
							CHANNELS 3 Xrotation Yrotation Zrotation
							JOINT LeftHand
							{
								OFFSET 26.026505 0.000000 0.000000
								CHANNELS 3 Xrotation Yrotation Zrotation
								JOINT LeftHandThumb1
								{
									OFFSET 12.240501 -7.147949 9.207150
									CHANNELS 3 Xrotation Yrotation Zrotation
									JOINT LeftHandThumb2
									{
										OFFSET 4.138618 -2.389435 2.389433
										CHANNELS 3 Xrotation Yrotation Zrotation
										JOINT LeftHandThumb3
										{
											OFFSET 2.726913 -1.574387 1.574386
											CHANNELS 3 Xrotation Yrotation Zrotation
											JOINT LeftHandThumb4
											{
												OFFSET 3.941010 -2.275345 2.275342
												CHANNELS 3 Xrotation Yrotation Zrotation
												End Site
												{
													OFFSET -0.005798 5.087799 0.009903
												}
											}
										}
									}
								}
								JOINT LeftHandIndex1
								{
									OFFSET 24.424698 -1.985611 5.953459
									CHANNELS 3 Xrotation Yrotation Zrotation
									JOINT LeftHandIndex2
									{
										OFFSET 6.426697 0.000000 0.000000
										CHANNELS 3 Xrotation Yrotation Zrotation
										JOINT LeftHandIndex3
										{
											OFFSET 5.337898 0.000000 0.000000
											CHANNELS 3 Xrotation Yrotation Zrotation
											JOINT LeftHandIndex4
											{
												OFFSET 4.409401 0.000000 0.000000
												CHANNELS 3 Xrotation Yrotation Zrotation
												End Site
												{
													OFFSET 0.000000 4.409363 0.014373
												}
											}
										}
									}
								}
								JOINT LeftHandMiddle1
								{
									OFFSET 23.810104 0.000000 0.000000
									CHANNELS 3 Xrotation Yrotation Zrotation
									JOINT LeftHandMiddle2
									{
										OFFSET 7.176498 0.000000 0.000000
										CHANNELS 3 Xrotation Yrotation Zrotation
										JOINT LeftHandMiddle3
										{
											OFFSET 6.774902 0.000000 0.000000
											CHANNELS 3 Xrotation Yrotation Zrotation
											JOINT LeftHandMiddle4
											{
												OFFSET 5.403328 0.000000 0.000000
												CHANNELS 3 Xrotation Yrotation Zrotation
												End Site
												{
													OFFSET -0.027702 5.403244 0.017414
												}
											}
										}
									}
								}
								JOINT LeftHandRing1
								{
									OFFSET 22.908401 -0.839279 -6.020567
									CHANNELS 3 Xrotation Yrotation Zrotation
									JOINT LeftHandRing2
									{
										OFFSET 6.337502 0.000000 0.000000
										CHANNELS 3 Xrotation Yrotation Zrotation
										JOINT LeftHandRing3
										{
											OFFSET 5.779297 0.000000 0.000000
											CHANNELS 3 Xrotation Yrotation Zrotation
											JOINT LeftHandRing4
											{
												OFFSET 4.965698 0.000000 0.000000
												CHANNELS 3 Xrotation Yrotation Zrotation
												End Site
												{
													OFFSET 0.000000 4.965668 0.016186
												}
											}
										}
									}
								}
								JOINT LeftHandPinky1
								{
									OFFSET 20.037003 -1.530319 -10.950146
									CHANNELS 3 Xrotation Yrotation Zrotation
									JOINT LeftHandPinky2
									{
										OFFSET 5.254700 0.000000 0.000000
										CHANNELS 3 Xrotation Yrotation Zrotation
										JOINT LeftHandPinky3
										{
											OFFSET 4.810204 0.000000 0.000000
											CHANNELS 3 Xrotation Yrotation Zrotation
											JOINT LeftHandPinky4
											{
												OFFSET 3.647202 0.000000 0.000000
												CHANNELS 3 Xrotation Yrotation Zrotation
												End Site
												{
													OFFSET 0.000000 3.647186 0.011889
												}
											}
										}
									}
								}
							}
						}
					}
				}
				JOINT RightShoulder
				{
					OFFSET -15.141001 14.495407 -7.737500
					CHANNELS 3 Xrotation Yrotation Zrotation
					JOINT RightArm
					{
						OFFSET -9.308998 -2.777710 0.208500
						CHANNELS 3 Xrotation Yrotation Zrotation
						JOINT RightForeArm
						{
							OFFSET -29.972300 0.000000 0.000000
							CHANNELS 3 Xrotation Yrotation Zrotation
							JOINT RightHand
							{
								OFFSET -26.026505 0.000000 0.000000
								CHANNELS 3 Xrotation Yrotation Zrotation
								JOINT RightHandThumb1
								{
									OFFSET -12.240601 -7.148026 9.207092
									CHANNELS 3 Xrotation Yrotation Zrotation
									JOINT RightHandThumb2
									{
										OFFSET -4.138618 -2.389435 2.389433
										CHANNELS 3 Xrotation Yrotation Zrotation
										JOINT RightHandThumb3
										{
											OFFSET -2.726974 -1.574417 1.574421
											CHANNELS 3 Xrotation Yrotation Zrotation
											JOINT RightHandThumb4
											{
												OFFSET -3.941010 -2.275345 2.275343
												CHANNELS 3 Xrotation Yrotation Zrotation
												End Site
												{
													OFFSET 0.005814 5.087799 0.009927
												}
											}
										}
									}
								}
								JOINT RightHandIndex1
								{
									OFFSET -24.424698 -1.985657 5.953444
									CHANNELS 3 Xrotation Yrotation Zrotation
									JOINT RightHandIndex2
									{
										OFFSET -6.426697 0.000000 0.000000
										CHANNELS 3 Xrotation Yrotation Zrotation
										JOINT RightHandIndex3
										{
											OFFSET -5.337898 0.000000 0.000000
											CHANNELS 3 Xrotation Yrotation Zrotation
											JOINT RightHandIndex4
											{
												OFFSET -4.409401 0.000000 0.000000
												CHANNELS 3 Xrotation Yrotation Zrotation
												End Site
												{
													OFFSET 0.000000 4.409363 0.014408
												}
											}
										}
									}
								}
								JOINT RightHandMiddle1
								{
									OFFSET -23.810097 0.000000 0.000000
									CHANNELS 3 Xrotation Yrotation Zrotation
									JOINT RightHandMiddle2
									{
										OFFSET -7.176498 0.000000 0.000000
										CHANNELS 3 Xrotation Yrotation Zrotation
										JOINT RightHandMiddle3
										{
											OFFSET -6.774902 0.000000 0.000000
											CHANNELS 3 Xrotation Yrotation Zrotation
											JOINT RightHandMiddle4
											{
												OFFSET -5.403328 0.000000 0.000000
												CHANNELS 3 Xrotation Yrotation Zrotation
												End Site
												{
													OFFSET 0.027702 5.403244 0.017457
												}
											}
										}
									}
								}
								JOINT RightHandRing1
								{
									OFFSET -22.908302 -0.839325 -6.020576
									CHANNELS 3 Xrotation Yrotation Zrotation
									JOINT RightHandRing2
									{
										OFFSET -6.337502 0.000000 0.000000
										CHANNELS 3 Xrotation Yrotation Zrotation
										JOINT RightHandRing3
										{
											OFFSET -5.779297 0.000000 0.000000
											CHANNELS 3 Xrotation Yrotation Zrotation
											JOINT RightHandRing4
											{
												OFFSET -4.965698 0.000000 0.000000
												CHANNELS 3 Xrotation Yrotation Zrotation
												End Site
												{
													OFFSET 0.000000 4.965668 0.016226
												}
											}
										}
									}
								}
								JOINT RightHandPinky1
								{
									OFFSET -20.037003 -1.530334 -10.950259
									CHANNELS 3 Xrotation Yrotation Zrotation
									JOINT RightHandPinky2
									{
										OFFSET -5.254700 0.000000 0.000000
										CHANNELS 3 Xrotation Yrotation Zrotation
										JOINT RightHandPinky3
										{
											OFFSET -4.810204 0.000000 0.000000
											CHANNELS 3 Xrotation Yrotation Zrotation
											JOINT RightHandPinky4
											{
												OFFSET -3.647202 0.000000 0.000000
												CHANNELS 3 Xrotation Yrotation Zrotation
												End Site
												{
													OFFSET 0.000000 3.647186 0.011917
												}
											}
										}
									}
								}
							}
						}
					}
				}
			}
		}
	}
	JOINT LeftUpLeg
	{
		OFFSET 15.427100 -6.655098 0.678600
		CHANNELS 3 Xrotation Yrotation Zrotation
		JOINT LeftLeg
		{
			OFFSET 4.081073 -39.591068 13.024000
			CHANNELS 3 Xrotation Yrotation Zrotation
			JOINT LeftFoot
			{
				OFFSET -4.081074 -37.707932 -15.979700
				CHANNELS 3 Xrotation Yrotation Zrotation
				JOINT LeftToeBase
				{
					OFFSET 5.346399 -15.068900 20.645000
					CHANNELS 3 Xrotation Yrotation Zrotation
					JOINT LeftToe_End
					{
						OFFSET 2.754700 0.931300 11.300900
						CHANNELS 3 Xrotation Yrotation Zrotation
						End Site
						{
							OFFSET 0.000000 11.669021 0.000000
						}
					}
				}
			}
		}
	}
	JOINT RightUpLeg
	{
		OFFSET -15.569500 -6.655098 0.678600
		CHANNELS 3 Xrotation Yrotation Zrotation
		JOINT RightLeg
		{
			OFFSET -4.081825 -39.591045 13.023800
			CHANNELS 3 Xrotation Yrotation Zrotation
			JOINT RightFoot
			{
				OFFSET 4.081824 -37.707954 -15.979600
				CHANNELS 3 Xrotation Yrotation Zrotation
				JOINT RightToeBase
				{
					OFFSET -5.346400 -15.068900 20.645000
					CHANNELS 3 Xrotation Yrotation Zrotation
					JOINT RightToe_End
					{
						OFFSET -2.754700 0.931300 11.300900
						CHANNELS 3 Xrotation Yrotation Zrotation
						End Site
						{
							OFFSET 0.000000 11.669021 0.000000
						}
					}
				}
			}
		}
	}
}
MOTION
Frames: 4
Frame Time: 0.033333
1.421968 80.247192 31.455933 -17.831221 -9.208453 -16.406473 15.219629 13.320637 -2.049486 9.554499 0.773107 5.689563 9.500655 1.146373 5.496733 3.782874 -0.454042 5.000999 -6.424222 -0.261127 8.727259 0.000001 0.000000 0.000000 0.025879 -9.506897 -21.175345 -38.268734 11.511601 1.028516 0.000007 -18.387086 0.000010 -2.230601 -8.497817 46.589079 -5.120687 -11.247122 6.402039 1.194872 28.562456 4.338225 -6.459121 5.420456 12.890310 -0.000002 -0.000003 -0.000005 1.893274 -4.951101 -28.745186 0.500983 2.372326 -23.845522 0.114083 1.151710 -11.313632 -0.000000 -0.000001 0.000001 -0.009894 3.912168 -31.853328 0.320384 1.912577 -19.017733 0.030385 0.596535 -5.831422 0.000002 0.000002 -0.000002 0.300702 4.431855 -32.326486 0.571122 2.524941 -25.487399 0.426209 2.195524 -21.969554 -0.000000 0.000003 0.000001 1.642941 12.320849 -29.992553 0.633190 2.651105 -26.862010 0.815021 2.982625 -30.560240 0.000002 -0.000001 0.000001 9.394968 26.380791 -21.893575 -69.647412 49.108425 14.975750 0.000013 62.238678 -0.000010 57.812572 32.810142 -55.306760 -12.549847 18.320386 -3.300958 9.036833 -33.056374 -1.713896 -5.316263 -11.863262 -17.545067 -0.000000 -0.000006 -0.000000 1.130229 5.391376 8.622380 0.280807 -1.594273 19.978064 0.084085 -0.881870 10.891824 0.000000 -0.000000 -0.000000 -1.225323 0.035432 21.792762 0.907785 -2.764457 36.352015 0.472165 -2.045144 25.999040 -0.000000 0.000000 -0.000004 -0.351158 -2.797102 29.435988 0.787007 -2.592510 33.767595 0.222739 -1.424506 17.773901 0.000001 0.000000 0.000000 -0.140739 -9.477591 35.348432 0.836158 -2.664532 34.839914 0.571280 -2.236791 28.651035 -0.000000 -0.000000 0.000001 -21.982364 6.018317 8.794915 54.369108 4.554139 1.277339 -21.505535 28.914578 8.417489 -5.197774 0.000001 -0.000001 -0.000000 0.000001 0.000000 -76.972352 -20.338374 -12.797293 85.953505 -3.606041 4.561541 41.835056 -2.566189 -11.359014 -26.704496 -0.000007 0.000003 0.000001 -0.000000 -0.000000 
1.754309 80.577469 26.685133 -5.509883 -13.230174 -13.610285 13.781245 13.648069 -4.647333 6.338891 2.564811 3.571282 6.296821 2.867091 3.369965 1.941490 -1.246889 6.107998 -7.828852 -2.613948 8.860876 -0.000000 -0.000000 -0.000000 -0.218029 -9.203291 -25.499420 -35.430934 18.783234 -1.599150 -0.000001 -17.348062 0.000006 -5.366341 -7.678996 46.518759 -5.139651 -10.810428 6.074316 1.806603 28.610488 4.054461 -6.658221 3.919846 12.528129 -0.000001 -0.000002 0.000001 1.604383 -4.921957 -27.593638 0.481551 2.327887 -23.371538 0.125393 1.206855 -11.863203 0.000000 -0.000000 -0.000001 -0.169701 3.591565 -30.961729 0.329715 1.939421 -19.295371 0.047882 0.748305 -7.322470 -0.000000 -0.000001 0.000001 0.269446 4.369711 -32.027385 0.572226 2.527247 -25.512374 0.442980 2.236612 -22.403176 0.000001 0.000001 0.000000 1.549711 11.642738 -30.464221 0.652684 2.689182 -27.280225 0.824063 2.997887 -30.733778 0.000001 -0.000001 0.000001 8.987720 19.814635 -26.851369 -77.255669 48.472193 21.133604 0.000003 67.413393 -0.000009 56.553099 33.784800 -48.942813 -11.969473 24.028933 -4.656217 9.126459 -34.290104 -2.021075 -5.421965 -10.695286 -17.296443 -0.000000 0.000004 -0.000002 1.697902 8.902021 6.232283 0.274023 -1.575429 19.732020 0.092640 -0.925271 11.434990 0.000001 0.000000 0.000001 -2.191371 3.197218 19.924895 0.924489 -2.787004 36.697097 0.512252 -2.125248 27.099834 -0.000001 0.000001 -0.000002 -1.685462 -0.111551 27.755199 0.845540 -2.677936 35.041138 0.284273 -1.603789 20.102580 -0.000001 -0.000000 -0.000002 -2.162472 -6.984079 33.912302 0.932607 -2.797837 36.863456 0.651888 -2.378264 30.652844 0.000000 -0.000002 0.000001 -38.601948 1.719369 7.796943 52.194547 7.302729 1.210480 -13.794094 29.618361 6.398759 -4.249943 -0.000002 0.000005 0.000000 -0.000000 -0.000000 -67.232243 -23.439534 -17.346292 78.525544 -2.542151 6.852115 39.520233 -3.272675 -13.414538 -26.318462 -0.000022 -0.000006 0.000002 0.000000 -0.000000 
1.615744 79.658768 22.154526 3.438993 -13.780506 -10.046162 13.055454 12.766824 -7.414068 4.360342 3.594689 2.031313 4.347304 3.822947 1.828751 0.756287 -1.876863 6.750590 -8.296878 -4.616931 8.971917 0.000002 0.000000 -0.000000 -0.126238 -8.274489 -27.658716 -31.860466 24.810288 -7.594544 -0.000000 -14.343421 -0.000009 -6.808423 -7.680629 45.034746 -5.154196 -10.363088 5.740307 2.431676 28.579424 3.758126 -6.898658 2.242291 12.119787 -0.000002 -0.000003 -0.000000 1.274559 -4.936246 -26.234960 0.457169 2.270713 -22.764063 0.137524 1.263199 -12.425913 0.000001 -0.000000 -0.000001 -0.339579 3.217043 -29.871023 0.336954 1.959961 -19.508084 0.070031 0.904099 -8.858428 -0.000001 0.000000 -0.000003 0.240022 4.301934 -31.557837 0.568499 2.519412 -25.427474 0.458017 2.272735 -22.785547 -0.000000 0.000000 0.000001 1.445105 10.933399 -30.821222 0.668103 2.718837 -27.607025 0.825233 2.999836 -30.756082 -0.000000 -0.000000 0.000000 7.641815 16.091661 -26.726392 -81.294291 51.033879 27.150483 0.000030 70.733289 -0.000024 53.166961 34.460736 -42.760464 -12.097596 25.420917 -4.034081 9.207635 -35.466068 -2.351639 -5.544536 -9.401730 -17.018887 -0.000001 0.000002 0.000001 1.589223 8.562351 6.617434 0.264506 -1.548672 19.383090 0.100278 -0.962285 11.898959 -0.000002 -0.000001 -0.000001 -2.260786 3.058027 20.788934 0.921811 -2.783395 36.641895 0.550161 -2.197745 28.105508 -0.000002 -0.000001 0.000004 -1.781136 -0.144831 28.916234 0.886724 -2.735690 35.913490 0.355401 -1.786076 22.506621 0.000001 0.000001 -0.000000 -2.127000 -6.588454 35.470446 1.011881 -2.900426 38.458289 0.741384 -2.523055 32.745826 0.000001 0.000001 0.000000 -51.868730 0.878872 5.951057 50.194695 8.902183 1.943491 -6.948363 28.693331 6.155637 -4.253548 0.000005 0.000003 0.000000 0.000000 -0.000000 -54.320006 -25.841488 -21.082439 73.592618 -1.904245 8.718101 36.279906 -3.676972 -11.878455 -26.576065 -0.081411 3.443197 -0.000003 0.000003 0.000000 
1.562413 77.506699 17.422031 7.152220 -11.529746 -7.933451 13.303168 12.330517 -9.222071 4.208251 4.019808 1.496345 4.198350 4.222209 1.307129 0.523806 -2.371728 7.319076 -8.666384 -6.595572 9.412784 -0.000001 0.000001 -0.000000 0.250804 -6.749663 -27.451860 -27.039245 29.020886 -15.703635 0.000000 -10.347558 -0.000006 -8.098239 -7.454194 41.966769 -5.166516 -9.910001 5.404711 3.065260 28.484983 3.454540 -7.177396 0.426728 11.672246 -0.000000 -0.000002 0.000000 0.914408 -4.992105 -24.714406 0.429354 2.203300 -22.051505 0.150327 1.319969 -12.993970 -0.000003 0.000001 0.000000 -0.509558 2.798292 -28.624209 0.342485 1.975491 -19.669068 0.096991 1.062694 -10.428868 -0.000001 0.000002 -0.000001 0.212553 4.229748 -30.954066 0.560966 2.503546 -25.255905 0.471681 2.304949 -23.127565 0.000002 -0.000000 0.000000 1.332997 10.199489 -31.086967 0.680227 2.741855 -27.861470 0.820198 2.991393 -30.659838 -0.000002 0.000000 -0.000000 6.534928 16.169132 -21.509121 -79.465296 57.078337 28.084331 0.000037 73.906636 -0.000044 48.627757 34.425222 -37.534666 -12.842290 22.231757 -1.671876 9.281903 -36.595761 -2.700601 -5.682933 -8.010162 -16.717101 -0.000002 -0.000001 0.000003 0.913373 4.093708 9.542027 0.253013 -1.515613 18.953292 0.107111 -0.994231 12.300262 -0.000002 -0.000000 -0.000001 -1.176041 -0.538903 24.212288 0.900154 -2.754099 36.193797 0.586608 -2.264605 29.041374 -0.000000 -0.000000 0.000002 -0.376038 -2.991321 32.757707 0.908852 -2.765918 36.374227 0.436783 -1.970951 24.988862 -0.000000 -0.000001 -0.000000 0.163695 -8.255603 39.876646 1.070718 -2.972908 39.606836 0.841225 -2.671764 34.948275 0.000001 -0.000002 -0.000001 -60.403434 1.704722 3.146597 48.756926 8.543624 3.003753 -1.067448 27.353495 7.303965 -4.494633 0.000008 -0.000002 -0.000000 -0.000001 -0.000000 -34.460630 -26.273240 -19.507772 69.321680 -2.730578 10.125608 30.076137 -3.841718 -5.504287 -52.134206 -8.562662 16.307876 0.000001 -0.000001 0.000000 
